<?xml version='1.0' encoding='UTF-8'?>
<svg width="37mm" height="37mm" version="1.1" viewBox="0 0 37 37" fill_color="#222222" xmlns="http://www.w3.org/2000/svg"><path d="M2,2H3V3H2zM3,2H4V3H3zM4,2H5V3H4zM5,2H6V3H5zM6,2H7V3H6zM7,2H8V3H7zM8,2H9V3H8zM12,2H13V3H12zM14,2H15V3H14zM15,2H16V3H15zM16,2H17V3H16zM17,2H18V3H17zM19,2H20V3H19zM20,2H21V3H20zM21,2H22V3H21zM22,2H23V3H22zM25,2H26V3H25zM26,2H27V3H26zM28,2H29V3H28zM29,2H30V3H29zM30,2H31V3H30zM31,2H32V3H31zM32,2H33V3H32zM33,2H34V3H33zM34,2H35V3H34zM2,3H3V4H2zM8,3H9V4H8zM10,3H11V4H10zM12,3H13V4H12zM13,3H14V4H13zM14,3H15V4H14zM16,3H17V4H16zM19,3H20V4H19zM20,3H21V4H20zM22,3H23V4H22zM24,3H25V4H24zM26,3H27V4H26zM28,3H29V4H28zM34,3H35V4H34zM2,4H3V5H2zM4,4H5V5H4zM5,4H6V5H5zM6,4H7V5H6zM8,4H9V5H8zM11,4H12V5H11zM12,4H13V5H12zM14,4H15V5H14zM16,4H17V5H16zM17,4H18V5H17zM18,4H19V5H18zM20,4H21V5H20zM22,4H23V5H22zM23,4H24V5H23zM24,4H25V5H24zM28,4H29V5H28zM30,4H31V5H30zM31,4H32V5H31zM32,4H33V5H32zM34,4H35V5H34zM2,5H3V6H2zM4,5H5V6H4zM5,5H6V6H5zM6,5H7V6H6zM8,5H9V6H8zM13,5H14V6H13zM21,5H22V6H21zM22,5H23V6H22zM26,5H27V6H26zM28,5H29V6H28zM30,5H31V6H30zM31,5H32V6H31zM32,5H33V6H32zM34,5H35V6H34zM2,6H3V7H2zM4,6H5V7H4zM5,6H6V7H5zM6,6H7V7H6zM8,6H9V7H8zM11,6H12V7H11zM12,6H13V7H12zM13,6H14V7H13zM15,6H16V7H15zM18,6H19V7H18zM19,6H20V7H19zM20,6H21V7H20zM22,6H23V7H22zM26,6H27V7H26zM28,6H29V7H28zM30,6H31V7H30zM31,6H32V7H31zM32,6H33V7H32zM34,6H35V7H34zM2,7H3V8H2zM8,7H9V8H8zM10,7H11V8H10zM12,7H13V8H12zM13,7H14V8H13zM14,7H15V8H14zM19,7H20V8H19zM20,7H21V8H20zM21,7H22V8H21zM22,7H23V8H22zM23,7H24V8H23zM24,7H25V8H24zM28,7H29V8H28zM34,7H35V8H34zM2,8H3V9H2zM3,8H4V9H3zM4,8H5V9H4zM5,8H6V9H5zM6,8H7V9H6zM7,8H8V9H7zM8,8H9V9H8zM10,8H11V9H10zM12,8H13V9H12zM14,8H15V9H14zM16,8H17V9H16zM18,8H19V9H18zM20,8H21V9H20zM22,8H23V9H22zM24,8H25V9H24zM26,8H27V9H26zM28,8H29V9H28zM29,8H30V9H29zM30,8H31V9H30zM31,8H32V9H31zM32,8H33V9H32zM33,8H34V9H33zM34,8H35V9H34zM10,9H11V10H10zM11,9H12V10H11zM12,9H13V10H12zM14,9H15V10H14zM17,9H18V10H17zM19,9H20V10H19zM23,9H24V10H23zM24,9H25V10H24zM25,9H26V10H25zM6,10H7V11H6zM7,10H8V11H7zM8,10H9V11H8zM9,10H10V11H9zM16,10H17V11H16zM17,10H18V11H17zM18,10H19V11H18zM21,10H22V11H21zM23,10H24V11H23zM24,10H25V11H24zM26,10H27V11H26zM28,10H29V11H28zM29,10H30V11H29zM33,10H34V11H33zM2,11H3V12H2zM3,11H4V12H3zM5,11H6V12H5zM7,11H8V12H7zM9,11H10V12H9zM10,11H11V12H10zM14,11H15V12H14zM15,11H16V12H15zM16,11H17V12H16zM17,11H18V12H17zM18,11H19V12H18zM19,11H20V12H19zM21,11H22V12H21zM22,11H23V12H22zM23,11H24V12H23zM25,11H26V12H25zM29,11H30V12H29zM32,11H33V12H32zM33,11H34V12H33zM2,12H3V13H2zM6,12H7V13H6zM8,12H9V13H8zM9,12H10V13H9zM11,12H12V13H11zM13,12H14V13H13zM15,12H16V13H15zM16,12H17V13H16zM17,12H18V13H17zM18,12H19V13H18zM19,12H20V13H19zM20,12H21V13H20zM21,12H22V13H21zM25,12H26V13H25zM29,12H30V13H29zM30,12H31V13H30zM31,12H32V13H31zM32,12H33V13H32zM33,12H34V13H33zM9,13H10V14H9zM12,13H13V14H12zM13,13H14V14H13zM17,13H18V14H17zM18,13H19V14H18zM24,13H25V14H24zM26,13H27V14H26zM28,13H29V14H28zM30,13H31V14H30zM34,13H35V14H34zM3,14H4V15H3zM4,14H5V15H4zM7,14H8V15H7zM8,14H9V15H8zM9,14H10V15H9zM11,14H12V15H11zM17,14H18V15H17zM18,14H19V15H18zM20,14H21V15H20zM21,14H22V15H21zM22,14H23V15H22zM24,14H25V15H24zM25,14H26V15H25zM28,14H29V15H28zM33,14H34V15H33zM34,14H35V15H34zM2,15H3V16H2zM6,15H7V16H6zM7,15H8V16H7zM10,15H11V16H10zM11,15H12V16H11zM13,15H14V16H13zM17,15H18V16H17zM18,15H19V16H18zM21,15H22V16H21zM22,15H23V16H22zM23,15H24V16H23zM25,15H26V16H25zM27,15H28V16H27zM29,15H30V16H29zM30,15H31V16H30zM32,15H33V16H32zM33,15H34V16H33zM2,16H3V17H2zM4,16H5V17H4zM5,16H6V17H5zM6,16H7V17H6zM8,16H9V17H8zM9,16H10V17H9zM10,16H11V17H10zM11,16H12V17H11zM13,16H14V17H13zM19,16H20V17H19zM20,16H21V17H20zM22,16H23V17H22zM25,16H26V17H25zM26,16H27V17H26zM27,16H28V17H27zM28,16H29V17H28zM29,16H30V17H29zM33,16H34V17H33zM3,17H4V18H3zM4,17H5V18H4zM5,17H6V18H5zM10,17H11V18H10zM17,17H18V18H17zM18,17H19V18H18zM19,17H20V18H19zM20,17H21V18H20zM21,17H22V18H21zM22,17H23V18H22zM23,17H24V18H23zM25,17H26V18H25zM26,17H27V18H26zM28,17H29V18H28zM2,18H3V19H2zM3,18H4V19H3zM4,18H5V19H4zM5,18H6V19H5zM6,18H7V19H6zM7,18H8V19H7zM8,18H9V19H8zM15,18H16V19H15zM17,18H18V19H17zM19,18H20V19H19zM21,18H22V19H21zM22,18H23V19H22zM23,18H24V19H23zM28,18H29V19H28zM30,18H31V19H30zM31,18H32V19H31zM2,19H3V20H2zM6,19H7V20H6zM7,19H8V20H7zM10,19H11V20H10zM11,19H12V20H11zM13,19H14V20H13zM14,19H15V20H14zM16,19H17V20H16zM17,19H18V20H17zM19,19H20V20H19zM23,19H24V20H23zM25,19H26V20H25zM26,19H27V20H26zM27,19H28V20H27zM5,20H6V21H5zM7,20H8V21H7zM8,20H9V21H8zM11,20H12V21H11zM13,20H14V21H13zM14,20H15V21H14zM15,20H16V21H15zM16,20H17V21H16zM18,20H19V21H18zM20,20H21V21H20zM21,20H22V21H21zM22,20H23V21H22zM25,20H26V21H25zM26,20H27V21H26zM31,20H32V21H31zM33,20H34V21H33zM2,21H3V22H2zM3,21H4V22H3zM4,21H5V22H4zM6,21H7V22H6zM7,21H8V22H7zM18,21H19V22H18zM20,21H21V22H20zM23,21H24V22H23zM27,21H28V22H27zM29,21H30V22H29zM30,21H31V22H30zM33,21H34V22H33zM34,21H35V22H34zM6,22H7V23H6zM8,22H9V23H8zM9,22H10V23H9zM10,22H11V23H10zM11,22H12V23H11zM12,22H13V23H12zM13,22H14V23H13zM14,22H15V23H14zM15,22H16V23H15zM17,22H18V23H17zM19,22H20V23H19zM22,22H23V23H22zM23,22H24V23H23zM24,22H25V23H24zM26,22H27V23H26zM27,22H28V23H27zM28,22H29V23H28zM30,22H31V23H30zM31,22H32V23H31zM2,23H3V24H2zM3,23H4V24H3zM5,23H6V24H5zM6,23H7V24H6zM7,23H8V24H7zM10,23H11V24H10zM11,23H12V24H11zM13,23H14V24H13zM16,23H17V24H16zM17,23H18V24H17zM19,23H20V24H19zM20,23H21V24H20zM23,23H24V24H23zM24,23H25V24H24zM28,23H29V24H28zM29,23H30V24H29zM31,23H32V24H31zM4,24H5V25H4zM5,24H6V25H5zM6,24H7V25H6zM7,24H8V25H7zM8,24H9V25H8zM9,24H10V25H9zM10,24H11V25H10zM14,24H15V25H14zM15,24H16V25H15zM17,24H18V25H17zM19,24H20V25H19zM29,24H30V25H29zM32,24H33V25H32zM33,24H34V25H33zM5,25H6V26H5zM6,25H7V26H6zM7,25H8V26H7zM9,25H10V26H9zM14,25H15V26H14zM15,25H16V26H15zM18,25H19V26H18zM21,25H22V26H21zM23,25H24V26H23zM26,25H27V26H26zM29,25H30V26H29zM30,25H31V26H30zM34,25H35V26H34zM2,26H3V27H2zM3,26H4V27H3zM4,26H5V27H4zM8,26H9V27H8zM10,26H11V27H10zM13,26H14V27H13zM14,26H15V27H14zM18,26H19V27H18zM20,26H21V27H20zM21,26H22V27H21zM23,26H24V27H23zM25,26H26V27H25zM26,26H27V27H26zM27,26H28V27H27zM28,26H29V27H28zM29,26H30V27H29zM30,26H31V27H30zM33,26H34V27H33zM34,26H35V27H34zM10,27H11V28H10zM12,27H13V28H12zM13,27H14V28H13zM16,27H17V28H16zM18,27H19V28H18zM21,27H22V28H21zM26,27H27V28H26zM30,27H31V28H30zM31,27H32V28H31zM32,27H33V28H32zM2,28H3V29H2zM3,28H4V29H3zM4,28H5V29H4zM5,28H6V29H5zM6,28H7V29H6zM7,28H8V29H7zM8,28H9V29H8zM10,28H11V29H10zM11,28H12V29H11zM16,28H17V29H16zM17,28H18V29H17zM19,28H20V29H19zM20,28H21V29H20zM23,28H24V29H23zM24,28H25V29H24zM26,28H27V29H26zM28,28H29V29H28zM30,28H31V29H30zM33,28H34V29H33zM2,29H3V30H2zM8,29H9V30H8zM10,29H11V30H10zM12,29H13V30H12zM13,29H14V30H13zM15,29H16V30H15zM17,29H18V30H17zM19,29H20V30H19zM20,29H21V30H20zM21,29H22V30H21zM22,29H23V30H22zM23,29H24V30H23zM26,29H27V30H26zM30,29H31V30H30zM33,29H34V30H33zM34,29H35V30H34zM2,30H3V31H2zM4,30H5V31H4zM5,30H6V31H5zM6,30H7V31H6zM8,30H9V31H8zM10,30H11V31H10zM11,30H12V31H11zM13,30H14V31H13zM14,30H15V31H14zM16,30H17V31H16zM18,30H19V31H18zM19,30H20V31H19zM22,30H23V31H22zM26,30H27V31H26zM27,30H28V31H27zM28,30H29V31H28zM29,30H30V31H29zM30,30H31V31H30zM31,30H32V31H31zM2,31H3V32H2zM4,31H5V32H4zM5,31H6V32H5zM6,31H7V32H6zM8,31H9V32H8zM12,31H13V32H12zM16,31H17V32H16zM17,31H18V32H17zM18,31H19V32H18zM20,31H21V32H20zM23,31H24V32H23zM24,31H25V32H24zM25,31H26V32H25zM26,31H27V32H26zM28,31H29V32H28zM29,31H30V32H29zM30,31H31V32H30zM32,31H33V32H32zM34,31H35V32H34zM2,32H3V33H2zM4,32H5V33H4zM5,32H6V33H5zM6,32H7V33H6zM8,32H9V33H8zM11,32H12V33H11zM14,32H15V33H14zM19,32H20V33H19zM20,32H21V33H20zM21,32H22V33H21zM22,32H23V33H22zM24,32H25V33H24zM25,32H26V33H25zM26,32H27V33H26zM27,32H28V33H27zM28,32H29V33H28zM30,32H31V33H30zM31,32H32V33H31zM32,32H33V33H32zM2,33H3V34H2zM8,33H9V34H8zM15,33H16V34H15zM16,33H17V34H16zM19,33H20V34H19zM23,33H24V34H23zM25,33H26V34H25zM26,33H27V34H26zM28,33H29V34H28zM29,33H30V34H29zM30,33H31V34H30zM31,33H32V34H31zM2,34H3V35H2zM3,34H4V35H3zM4,34H5V35H4zM5,34H6V35H5zM6,34H7V35H6zM7,34H8V35H7zM8,34H9V35H8zM12,34H13V35H12zM14,34H15V35H14zM17,34H18V35H17zM20,34H21V35H20zM22,34H23V35H22zM23,34H24V35H23zM24,34H25V35H24zM25,34H26V35H25zM26,34H27V35H26zM28,34H29V35H28zM29,34H30V35H29zM32,34H33V35H32zM34,34H35V35H34z" id="qr-path" fill="#222222" fill-opacity="1" fill-rule="nonzero" stroke="none"/></svg>